<?xml version="1.0" encoding="UTF-8"?>
<svg xmlns="http://www.w3.org/2000/svg" xmlns:xlink="http://www.w3.org/1999/xlink" width="500" zoomAndPan="magnify" viewBox="0 0 375 112.499997" height="150" preserveAspectRatio="xMidYMid meet" version="1.0">
  <defs>
    <g></g>
    <clipPath id="4b6a620a47">
      <path d="M 90.050781 31 L 198 31 L 198 51 L 90.050781 51 Z M 90.050781 31 " clip-rule="nonzero"></path>
    </clipPath>
    <clipPath id="711ffa2dbc">
      <path d="M 178 30 L 284.933594 30 L 284.933594 51 L 178 51 Z M 178 30 " clip-rule="nonzero"></path>
    </clipPath>
    <clipPath id="5372ef28e8">
      <path d="M 173 15.425781 L 204 15.425781 L 204 39 L 173 39 Z M 173 15.425781 " clip-rule="nonzero"></path>
    </clipPath>
  </defs>
  <g clip-path="url(#4b6a620a47)">
    <path fill="#c4984f" d="M 196.058594 34.515625 C 190.15625 45.730469 177.144531 50.011719 165.113281 48.710938 C 159.132812 48.066406 151.148438 45.523438 149.976562 38.601562 C 149.570312 36.214844 150.628906 32.765625 153.316406 32.21875 C 157.078125 31.449219 158.222656 36.550781 156.9375 39.066406 C 154.035156 44.753906 145.3125 45.726562 139.714844 45.644531 C 136.464844 45.59375 132.804688 45.4375 129.9375 43.738281 C 127.242188 42.136719 125.292969 38.664062 127.359375 35.789062 C 128.351562 34.40625 130.25 33.941406 131.714844 34.894531 C 133.726562 36.195312 132.964844 38.648438 131.488281 40.058594 C 129.550781 41.914062 126.507812 42.140625 123.96875 42.03125 C 117.796875 41.757812 111.78125 39.863281 105.601562 39.5 C 101.378906 39.25 92.738281 39.113281 90.898438 44.195312 C 90.171875 46.199219 91.292969 48.234375 93.152344 49.109375 C 95.507812 50.21875 97.957031 49.144531 99.832031 47.628906 C 100 47.488281 100.070312 47.183594 100 46.984375 C 99.496094 45.5 98.355469 44.644531 96.769531 44.652344 C 95.921875 44.65625 95.917969 45.976562 96.769531 45.972656 C 97.414062 45.96875 98.507812 46.429688 98.027344 47.339844 C 97.871094 47.628906 96.789062 47.972656 96.484375 48.058594 C 95.226562 48.421875 93.773438 48.253906 92.800781 47.304688 C 90.46875 45.03125 93.453125 42.65625 95.476562 41.882812 C 99.285156 40.421875 103.789062 40.585938 107.777344 40.996094 C 112.113281 41.445312 116.378906 42.386719 120.6875 43.007812 C 123.464844 43.40625 126.402344 43.65625 129.128906 42.828125 C 131.460938 42.117188 133.71875 40.410156 134.226562 37.894531 C 134.695312 35.601562 133.097656 33.632812 130.886719 33.167969 C 128.613281 32.691406 126.5625 34.023438 125.667969 36.085938 C 124.597656 38.546875 125.371094 41.28125 127.148438 43.195312 C 129.324219 45.527344 132.492188 46.367188 135.558594 46.710938 C 139.304688 47.128906 143.164062 47.09375 146.871094 46.378906 C 151.925781 45.402344 160.039062 41.957031 158.765625 35.433594 C 157.78125 30.40625 151.78125 29.3125 149.414062 33.957031 C 146.679688 39.316406 150.996094 45.058594 155.671875 47.496094 C 162.800781 51.207031 172.578125 51.042969 180.117188 48.785156 C 187.324219 46.628906 193.667969 41.890625 197.199219 35.179688 C 197.59375 34.429688 196.457031 33.761719 196.058594 34.515625 " fill-opacity="1" fill-rule="nonzero"></path>
  </g>
  <g clip-path="url(#711ffa2dbc)">
    <path fill="#c4984f" d="M 178.113281 35.179688 C 184.90625 48.085938 201.007812 52.464844 214.539062 49.332031 C 220.109375 48.039062 226.914062 43.894531 226.75 37.339844 C 226.636719 32.964844 221.710938 28.1875 217.949219 32.507812 C 213.609375 37.492188 219.019531 43 223.613281 44.929688 C 226.949219 46.335938 230.585938 46.890625 234.1875 46.960938 C 237.628906 47.03125 241.460938 46.90625 244.675781 45.554688 C 247.160156 44.511719 249.441406 42.488281 250.015625 39.753906 C 250.492188 37.464844 249.597656 34.8125 247.503906 33.621094 C 245.621094 32.550781 242.988281 33.101562 241.703125 34.859375 C 240.195312 36.929688 241.355469 39.621094 243.074219 41.152344 C 245.285156 43.125 248.503906 43.476562 251.34375 43.351562 C 255.496094 43.167969 259.613281 42.140625 263.707031 41.503906 C 268.570312 40.75 273.652344 40.261719 278.484375 41.476562 C 280.328125 41.9375 283.234375 43.089844 283.328125 45.378906 C 283.40625 47.203125 281.480469 48.332031 279.863281 48.25 C 279.273438 48.21875 278.273438 47.992188 277.832031 47.65625 C 276.90625 46.957031 277.082031 45.964844 278.539062 45.972656 C 279.390625 45.976562 279.390625 44.65625 278.539062 44.652344 C 276.957031 44.644531 275.8125 45.496094 275.308594 46.984375 C 275.242188 47.183594 275.308594 47.488281 275.480469 47.628906 C 277.167969 48.992188 279.269531 50.011719 281.476562 49.371094 C 283.15625 48.882812 284.570312 47.429688 284.636719 45.628906 C 284.816406 40.953125 278.128906 39.832031 274.746094 39.539062 C 268.347656 38.984375 261.996094 40.523438 255.71875 41.511719 C 253.027344 41.941406 250.242188 42.335938 247.53125 41.800781 C 244.933594 41.289062 240.039062 37.953125 243.292969 35.132812 C 246.558594 32.304688 249.609375 37.132812 248.523438 40.195312 C 247.414062 43.328125 243.929688 44.722656 240.921875 45.230469 C 234.753906 46.265625 227.230469 45.910156 221.800781 42.535156 C 219.21875 40.929688 216.859375 38.03125 218.085938 34.828125 C 219.417969 31.339844 223.351562 31.585938 224.816406 34.765625 C 227.664062 40.953125 220.6875 46.207031 215.550781 47.703125 C 202.371094 51.539062 185.925781 47.191406 179.253906 34.515625 C 178.855469 33.761719 177.71875 34.429688 178.113281 35.179688 " fill-opacity="1" fill-rule="nonzero"></path>
  </g>
  <g clip-path="url(#5372ef28e8)">
    <path fill="#c4984f" d="M 189.203125 36.519531 C 186.242188 30.257812 180.257812 25.890625 175.078125 21.566406 C 175.078125 22.03125 175.078125 22.5 175.078125 22.964844 C 175.992188 22.066406 176.902344 21.167969 177.816406 20.269531 C 178.519531 19.578125 179.5625 18.0625 180.484375 17.695312 C 181.269531 17.386719 182.886719 17.851562 183.742188 17.941406 C 185.003906 18.070312 186.273438 18.160156 187.542969 18.207031 C 189.953125 18.296875 192.367188 18.238281 194.773438 18.035156 C 196.484375 17.886719 197.578125 17.828125 198.742188 19.273438 C 199.628906 20.363281 200.511719 21.457031 201.394531 22.550781 C 201.460938 22.03125 201.527344 21.511719 201.597656 20.992188 C 195.910156 25.09375 190.648438 30.175781 187.492188 36.519531 C 186.925781 37.65625 188.636719 38.664062 189.203125 37.519531 C 192.203125 31.484375 197.179688 26.609375 202.597656 22.703125 C 203.152344 22.304688 203.226562 21.679688 202.796875 21.148438 C 201.753906 19.859375 200.726562 18.550781 199.664062 17.273438 C 198.980469 16.457031 198.378906 15.859375 197.269531 15.816406 C 195.828125 15.753906 194.316406 16.109375 192.871094 16.1875 C 191.222656 16.273438 189.570312 16.289062 187.921875 16.238281 C 186.273438 16.1875 184.625 16.066406 182.984375 15.875 C 181.972656 15.757812 180.867188 15.4375 179.882812 15.808594 C 178.921875 16.171875 178.21875 17.09375 177.511719 17.792969 C 176.230469 19.050781 174.953125 20.308594 173.675781 21.566406 C 173.320312 21.917969 173.265625 22.625 173.675781 22.964844 C 178.726562 27.183594 184.605469 31.421875 187.492188 37.519531 C 188.039062 38.667969 189.746094 37.667969 189.203125 36.519531 " fill-opacity="1" fill-rule="nonzero"></path>
  </g>
  <path fill="#c4984f" d="M 174.070312 23.320312 C 183.097656 23.578125 192.125 23.582031 201.148438 23.328125 C 202.421875 23.292969 202.429688 21.308594 201.148438 21.347656 C 192.125 21.601562 183.097656 21.597656 174.070312 21.339844 C 172.792969 21.300781 172.796875 23.285156 174.070312 23.320312 " fill-opacity="1" fill-rule="nonzero"></path>
  <path fill="#c4984f" d="M 184.820312 17.132812 C 184.726562 18.578125 184.433594 19.882812 184.074219 21.269531 C 183.902344 21.933594 183.765625 22.488281 183.90625 23.179688 C 184.195312 24.574219 184.957031 25.964844 185.363281 27.34375 C 186.289062 30.460938 187.105469 33.722656 187.371094 36.96875 C 187.472656 38.230469 189.453125 38.242188 189.351562 36.96875 C 189.097656 33.882812 188.390625 30.816406 187.566406 27.839844 C 187.1875 26.46875 186.769531 25.105469 186.238281 23.789062 C 185.449219 21.835938 186.664062 19.253906 186.800781 17.132812 C 186.886719 15.859375 184.902344 15.867188 184.820312 17.132812 " fill-opacity="1" fill-rule="nonzero"></path>
  <path fill="#c4984f" d="M 189.3125 17.605469 C 189.8125 18.6875 190.324219 19.769531 190.816406 20.855469 C 191.410156 22.164062 190.957031 22.710938 190.332031 23.953125 C 189.554688 25.492188 188.722656 27.046875 188.273438 28.71875 C 187.59375 31.273438 187.050781 34.328125 187.371094 36.96875 C 187.519531 38.21875 189.503906 38.234375 189.351562 36.96875 C 189 34.046875 189.578125 30.460938 190.710938 27.746094 C 191.429688 26.015625 193.078125 24.027344 193.230469 22.128906 C 193.367188 20.394531 191.722656 18.121094 191.023438 16.605469 C 190.488281 15.449219 188.777344 16.453125 189.3125 17.605469 " fill-opacity="1" fill-rule="nonzero"></path>
  <path stroke-linecap="butt" transform="matrix(0.746681, 0, 0, 0.746681, 0.829651, 66.808461)" fill="none" stroke-linejoin="miter" d="M 19.485226 1.496382 C 19.929901 1.27666 20.740781 1.182493 21.243003 1.182493 C 22.247448 1.182493 22.618883 1.77365 22.618883 3.029206 L 22.618883 31.535551 L 19.485226 31.190273 L 19.485226 32.001153 L 36.560782 32.001153 C 42.346801 32.001153 45.292126 27.742726 45.292126 23.358745 C 45.292126 19.095087 41.943977 14.773883 36.398606 14.559392 C 39.474718 14.114716 43.450644 12.64467 43.450644 7.659068 C 43.450644 2.532215 39.532264 0.680271 35.933004 0.680271 L 19.485226 0.680271 Z M 34.206615 1.182493 C 38.465042 1.182493 41.164486 3.468651 41.164486 7.700919 C 41.164486 12.022123 37.873884 14.245503 33.678236 14.245503 L 26.443096 14.245503 L 26.443096 14.742494 L 33.51606 14.742494 C 41.943977 14.742494 42.854255 20.9418 42.854255 23.390133 C 42.854255 27.271893 40.405921 31.493699 34.175227 31.493699 L 26.191985 31.493699 C 25.187541 31.493699 24.816106 30.907773 24.816106 29.652217 L 24.816106 1.182493 Z M 47.949718 1.496382 C 48.389163 1.27666 49.200042 1.182493 49.707496 1.182493 C 50.706709 1.182493 51.083376 1.77365 51.083376 3.029206 L 51.083376 31.535551 L 47.949718 31.190273 L 47.949718 32.001153 L 56.403793 32.001153 L 56.403793 31.190273 C 55.96958 31.404764 55.148237 31.493699 54.651247 31.493699 C 53.652034 31.493699 53.275367 30.907773 53.275367 29.652217 L 53.275367 0.680271 L 47.949718 0.680271 Z M 61.007497 12.676059 C 63.110553 12.676059 65.830923 13.398003 65.830923 17.593652 L 65.830923 31.341986 C 65.830923 32.058699 65.893701 32.315042 66.306988 32.315042 C 66.966155 32.315042 68.211248 30.682819 70.879303 29.249393 L 70.879303 28.490828 C 70.188748 29.055828 69.252312 29.903328 68.593146 29.903328 C 68.14847 29.903328 68.028146 29.563282 68.028146 29.055828 L 68.028146 17.907541 C 68.028146 13.963003 64.952034 12.111059 61.389395 12.111059 C 58.255738 12.111059 56.000969 13.518327 54.3112 14.616938 L 54.3112 15.307494 C 55.807404 14.177494 58.255738 12.676059 61.007497 12.676059 Z M 79.542637 32.315042 C 86.374953 32.315042 91.078055 25.770458 91.078055 20.287865 C 91.078055 14.831429 87.436943 12.111059 82.30486 12.111059 C 78.763146 12.111059 75.692267 13.303836 74.536109 14.083327 L 74.536109 17.148976 C 75.8806 15.558605 78.543424 12.618512 82.487961 12.618512 C 86.908564 12.618512 88.791897 16.746152 88.791897 20.408189 C 88.791897 25.70768 86.777777 31.190273 81.488748 31.190273 C 78.391711 31.190273 75.692267 29.620828 75.692267 25.95356 C 75.692267 21.820689 78.946248 18.284207 83.398239 18.284207 C 84.622406 18.284207 86.092452 18.535318 87.159675 19.095087 L 87.468332 18.598096 C 85.966897 17.938929 84.591017 17.776753 83.209906 17.776753 C 77.570369 17.776753 73.37472 21.166754 73.37472 26.204671 C 73.37472 30.36893 76.194489 32.315042 79.542637 32.315042 Z M 93.233425 32.001153 L 93.233425 31.493699 C 91.601203 31.493699 89.942823 30.525875 88.818055 28.490828 L 88.818055 32.001153 Z M 94.635462 32.001153 L 103.089537 32.001153 L 103.089537 31.190273 C 102.655324 31.404764 101.839213 31.493699 101.342222 31.493699 C 100.337778 31.493699 99.966342 30.907773 99.966342 29.652217 L 99.966342 12.424948 L 94.635462 12.424948 L 94.635462 13.241059 C 95.080138 13.021336 95.891018 12.92717 96.39324 12.92717 C 97.392453 12.92717 97.76912 13.518327 97.76912 14.773883 L 97.76912 31.535551 L 94.635462 31.190273 Z M 101.059722 15.99805 C 102.058935 15.056383 103.34588 13.586337 106.824815 13.586337 C 109.707362 13.586337 111.234954 15.621383 111.611621 16.338096 L 111.611621 12.424948 C 111.611621 12.424948 109.94801 12.111059 108.232084 12.111059 C 103.999815 12.111059 101.807824 14.276892 100.620278 15.589994 Z M 120.128473 32.315042 C 126.955557 32.315042 131.658659 25.770458 131.658659 20.287865 C 131.658659 14.831429 128.017548 12.111059 122.885464 12.111059 C 119.343751 12.111059 116.272871 13.303836 115.116714 14.083327 L 115.116714 17.148976 C 116.461205 15.558605 119.124029 12.618512 123.068566 12.618512 C 127.489168 12.618512 129.372502 16.746152 129.372502 20.408189 C 129.372502 25.70768 127.358381 31.190273 122.069353 31.190273 C 118.972316 31.190273 116.272871 29.620828 116.272871 25.95356 C 116.272871 21.820689 119.526853 18.284207 123.978844 18.284207 C 125.203011 18.284207 126.673057 18.535318 127.74028 19.095087 L 128.048937 18.598096 C 126.547502 17.938929 125.171622 17.776753 123.790511 17.776753 C 118.150973 17.776753 113.955325 21.166754 113.955325 26.204671 C 113.955325 30.36893 116.775094 32.315042 120.128473 32.315042 Z M 133.81403 32.001153 L 133.81403 31.493699 C 132.181808 31.493699 130.523428 30.525875 129.398659 28.490828 L 129.398659 32.001153 Z M 145.673799 32.283653 C 147.776855 32.283653 149.6288 30.965319 150.533846 29.772541 L 150.219957 29.369717 C 148.687133 30.907773 147.68792 31.46231 145.673799 31.46231 C 141.54616 31.46231 140.635882 26.832449 140.635882 23.887124 L 140.635882 14.177494 L 140.13366 14.177494 C 140.13366 18.252818 138.349725 20.225087 138.349725 24.169624 C 138.349725 29.024439 141.577549 32.283653 145.673799 32.283653 Z M 134.122687 12.92717 L 147.651299 12.92717 L 147.651299 10.918281 C 146.369586 11.546059 144.208984 12.424948 140.515558 12.424948 L 138.004447 12.424948 C 139.32278 12.142448 140.667271 10.484068 140.667271 6.942355 L 140.667271 4.310919 L 138.47528 4.310919 L 138.47528 8.946012 C 138.47528 11.169392 138.098614 12.424948 136.440234 12.424948 C 135.529956 12.424948 135.435789 12.424948 134.122687 12.424948 Z M 181.723941 32.315042 C 188.048802 32.315042 191.334173 27.397449 191.334173 27.397449 L 191.334173 18.687031 C 191.334173 17.431476 191.71084 16.84555 192.710053 16.84555 C 193.217506 16.84555 194.028386 16.934485 194.467831 17.148976 L 194.467831 16.338096 L 186.013756 16.338096 L 186.013756 17.148976 L 189.142182 16.808929 L 189.142182 28.176939 C 189.142182 28.176939 185.637089 31.807588 181.692552 31.807588 C 174.300468 31.807588 170.256533 24.263791 170.256533 16.338096 C 170.256533 8.417632 174.582968 1.182493 180.410839 1.182493 C 184.601256 1.182493 186.610145 2.432817 189.76996 5.414762 L 189.76996 2.218326 C 189.76996 2.218326 187.237923 0.366382 181.723941 0.366382 C 172.610699 0.366382 168.064542 8.731521 168.064542 16.338096 C 168.064542 23.949902 172.610699 32.315042 181.723941 32.315042 Z M 196.806303 22.197356 C 196.806303 27.768884 200.442183 32.315042 206.678109 32.315042 C 212.914036 32.315042 216.544684 27.768884 216.544684 22.197356 C 216.544684 16.651985 212.914036 12.111059 206.678109 12.111059 C 200.442183 12.111059 196.806303 16.651985 196.806303 22.197356 Z M 206.678109 12.618512 C 211.65848 12.618512 214.258526 16.84555 214.258526 22.197356 C 214.258526 27.549162 211.65848 31.807588 206.678109 31.807588 C 201.692507 31.807588 199.092461 27.549162 199.092461 22.197356 C 199.092461 16.84555 201.692507 12.618512 206.678109 12.618512 Z M 227.808064 32.001153 L 227.808064 31.190273 C 227.373851 31.404764 226.55774 31.493699 226.060749 31.493699 C 225.056305 31.493699 224.679638 30.907773 224.679638 29.652217 L 224.679638 0.680271 L 219.35399 0.680271 L 219.35399 1.496382 C 219.793434 1.27666 220.604314 1.182493 221.111768 1.182493 C 222.110981 1.182493 222.487647 1.77365 222.487647 3.029206 L 222.487647 31.535551 L 219.35399 31.190273 L 219.35399 32.001153 Z M 240.18575 32.315042 C 243.905334 32.315042 246.222881 30.342773 247.509825 28.741939 L 247.509825 32.001153 L 252.830242 32.001153 L 252.830242 31.190273 C 252.396029 31.404764 251.574686 31.493699 251.077696 31.493699 C 250.078483 31.493699 249.701816 30.907773 249.701816 29.652217 L 249.701816 0.680271 L 244.376167 0.680271 L 244.376167 1.496382 C 244.815612 1.27666 245.626492 1.182493 246.133945 1.182493 C 247.133158 1.182493 247.509825 1.77365 247.509825 3.029206 L 247.509825 25.514115 C 247.509825 25.514115 245.72589 31.807588 240.18575 31.807588 C 235.200148 31.807588 232.600102 27.549162 232.600102 22.197356 C 232.600102 16.84555 235.200148 12.618512 240.18575 12.618512 C 244.250612 12.618512 245.908992 14.862818 245.908992 14.862818 L 246.348436 14.308281 C 246.348436 14.308281 244.59589 12.111059 240.18575 12.111059 C 233.944593 12.111059 230.313944 16.651985 230.313944 22.197356 C 230.313944 27.768884 233.944593 32.315042 240.18575 32.315042 Z M 284.240059 32.315042 C 291.218856 32.315042 297.329227 25.922171 297.329227 16.338096 C 297.329227 6.759253 291.218856 0.366382 284.240059 0.366382 C 277.250799 0.366382 271.14566 6.759253 271.14566 16.338096 C 271.14566 25.922171 277.250799 32.315042 284.240059 32.315042 Z M 273.431818 16.369485 C 273.431818 6.879577 278.349411 0.868604 284.240059 0.868604 C 290.125476 0.868604 295.043069 6.879577 295.043069 16.369485 C 295.043069 25.859393 290.125476 31.807588 284.240059 31.807588 C 278.349411 31.807588 273.431818 25.859393 273.431818 16.369485 Z M 300.295477 32.001153 L 308.749552 32.001153 L 308.749552 31.190273 C 308.315339 31.404764 307.499227 31.493699 307.002237 31.493699 C 305.997792 31.493699 305.626357 30.907773 305.626357 29.652217 L 305.626357 12.424948 L 300.295477 12.424948 L 300.295477 13.241059 C 300.740153 13.021336 301.551033 12.92717 302.053255 12.92717 C 303.057699 12.92717 303.429135 13.518327 303.429135 14.773883 L 303.429135 31.535551 L 300.295477 31.190273 Z M 306.719737 15.99805 C 307.71895 15.056383 309.005894 13.586337 312.48483 13.586337 C 315.367376 13.586337 316.894969 15.621383 317.271636 16.338096 L 317.271636 12.424948 C 317.271636 12.424948 315.613256 12.111059 313.892098 12.111059 C 309.659829 12.111059 307.467839 14.276892 306.280292 15.589994 Z M 325.349044 15.307494 C 326.850479 14.177494 329.293581 12.676059 332.050572 12.676059 C 334.153628 12.676059 336.873998 13.398003 336.873998 17.593652 L 336.873998 31.341986 C 336.873998 32.058699 336.936776 32.315042 337.350063 32.315042 C 338.003998 32.315042 339.128767 31.253051 341.922378 29.249393 L 341.922378 28.490828 C 341.231822 29.055828 340.290156 29.903328 339.63622 29.903328 C 339.191545 29.903328 339.065989 29.563282 339.065989 29.055828 L 339.065989 17.907541 C 339.065989 13.963003 335.995109 12.111059 332.43247 12.111059 C 329.293581 12.111059 327.038812 13.518327 325.349044 14.616938 Z M 327.446868 32.001153 L 327.446868 31.190273 C 327.007423 31.404764 326.191312 31.493699 325.694321 31.493699 C 324.695108 31.493699 324.318442 30.907773 324.318442 29.652217 L 324.318442 12.424948 L 318.987562 12.424948 L 318.987562 13.241059 C 319.432238 13.021336 320.243117 12.92717 320.74534 12.92717 C 321.749784 12.92717 322.121219 13.518327 322.121219 14.773883 L 322.121219 31.535551 L 318.987562 31.190273 L 318.987562 32.001153 Z M 350.585712 32.315042 C 357.412796 32.315042 362.115898 25.770458 362.115898 20.287865 C 362.115898 14.831429 358.474787 12.111059 353.347934 12.111059 C 349.806221 12.111059 346.73011 13.303836 345.579184 14.083327 L 345.579184 17.148976 C 346.923675 15.558605 349.586499 12.618512 353.531036 12.618512 C 357.951638 12.618512 359.82974 16.746152 359.82974 20.408189 C 359.82974 25.70768 357.820851 31.190273 352.526592 31.190273 C 349.429555 31.190273 346.73011 29.620828 346.73011 25.95356 C 346.73011 21.820689 349.989323 18.284207 354.441314 18.284207 C 355.665481 18.284207 357.130296 18.535318 358.20275 19.095087 L 358.506176 18.598096 C 357.009972 17.938929 355.634092 17.776753 354.247749 17.776753 C 348.613443 17.776753 344.412563 21.166754 344.412563 26.204671 C 344.412563 30.36893 347.237564 32.315042 350.585712 32.315042 Z M 364.271269 32.001153 L 364.271269 31.493699 C 362.644278 31.493699 360.985898 30.525875 359.861129 28.490828 L 359.861129 32.001153 Z M 376.920992 12.111059 C 374.294788 12.111059 372.631177 13.518327 372.034788 14.616938 L 372.034788 15.307494 C 372.845667 14.051938 374.263399 12.676059 376.518168 12.676059 C 378.61076 12.676059 380.431316 13.769438 380.431316 17.190827 L 380.431316 31.535551 L 377.297658 31.190273 L 377.297658 32.001153 L 385.756964 32.001153 L 385.756964 31.190273 C 385.31752 31.404764 384.501409 31.493699 384.004418 31.493699 C 382.994742 31.493699 382.618075 30.907773 382.618075 29.652217 L 382.618075 17.504716 C 382.618075 14.208883 380.494094 12.111059 376.920992 12.111059 Z M 383.653909 14.616938 L 383.653909 15.307494 C 384.47002 14.051938 385.877289 12.676059 388.132057 12.676059 C 390.235113 12.676059 392.050437 13.769438 392.050437 17.190827 C 392.050437 19.691476 392.076595 23.076245 392.076595 25.017124 L 392.076595 31.341986 C 392.076595 32.058699 392.139372 32.315042 392.552659 32.315042 C 393.211826 32.315042 394.336595 31.253051 397.124975 29.249393 L 397.124975 28.490828 C 396.43965 29.055828 395.497984 29.903328 394.838817 29.903328 C 394.394141 29.903328 394.273817 29.563282 394.273817 29.055828 L 394.242428 24.949115 L 394.242428 17.504716 C 394.242428 14.208883 392.107983 12.111059 388.540113 12.111059 C 385.908677 12.111059 384.250298 13.518327 383.653909 14.616938 Z M 365.673306 31.190273 L 365.673306 32.001153 L 374.132612 32.001153 L 374.132612 31.190273 C 373.698399 31.404764 372.877056 31.493699 372.380065 31.493699 C 371.380852 31.493699 371.004186 30.907773 371.004186 29.652217 L 371.004186 12.424948 L 365.673306 12.424948 L 365.673306 13.241059 C 366.117982 13.021336 366.928861 12.92717 367.436315 12.92717 C 368.435528 12.92717 368.812195 13.518327 368.812195 14.773883 L 368.812195 31.535551 Z M 409.492198 32.315042 C 413.651226 32.315042 416.408217 30.117819 417.941041 27.146337 L 416.936596 26.706893 C 415.874606 29.835319 412.992059 31.807588 409.492198 31.807588 C 404.506595 31.807588 401.906549 27.549162 401.906549 22.197356 C 401.906549 16.84555 404.506595 12.618512 409.492198 12.618512 C 414.467337 12.618512 415.937383 16.49504 415.937383 19.095087 C 415.937383 22.976846 411.835902 22.730967 411.835902 22.730967 L 403.00516 22.730967 L 403.00516 23.259346 L 413.708772 23.259346 C 413.708772 23.259346 418.322939 23.604624 418.322939 19.445596 C 418.322939 16.338096 415.722893 12.111059 409.492198 12.111059 C 403.25104 12.111059 399.620391 16.651985 399.620391 22.197356 C 399.620391 27.768884 403.25104 32.315042 409.492198 32.315042 Z M 427.493727 15.307494 C 428.989931 14.177494 431.438264 12.676059 434.190023 12.676059 C 436.293079 12.676059 439.01345 13.398003 439.01345 17.593652 L 439.01345 31.341986 C 439.01345 32.058699 439.076228 32.315042 439.489515 32.315042 C 440.148681 32.315042 441.268218 31.253051 444.06183 29.249393 L 444.06183 28.490828 C 443.371274 29.055828 442.434839 29.903328 441.775672 29.903328 C 441.330996 29.903328 441.210672 29.563282 441.210672 29.055828 L 441.210672 17.907541 C 441.210672 13.963003 438.134561 12.111059 434.571922 12.111059 C 431.438264 12.111059 429.183495 13.518327 427.493727 14.616938 Z M 429.586319 32.001153 L 429.586319 31.190273 C 429.152106 31.404764 428.330764 31.493699 427.833773 31.493699 C 426.83456 31.493699 426.457893 30.907773 426.457893 29.652217 L 426.457893 12.424948 L 421.132245 12.424948 L 421.132245 13.241059 C 421.571689 13.021336 422.382569 12.92717 422.890023 12.92717 C 423.889236 12.92717 424.265902 13.518327 424.265902 14.773883 L 424.265902 31.535551 L 421.132245 31.190273 L 421.132245 32.001153 Z M 456.387201 32.283653 C 458.490257 32.283653 460.342201 30.965319 461.247248 29.772541 L 460.933359 29.369717 C 459.400535 30.907773 458.401322 31.46231 456.387201 31.46231 C 452.259562 31.46231 451.349284 26.832449 451.349284 23.887124 L 451.349284 14.177494 L 450.847062 14.177494 C 450.847062 18.252818 449.063126 20.225087 449.063126 24.169624 C 449.063126 29.024439 452.290951 32.283653 456.387201 32.283653 Z M 444.836089 12.92717 L 458.364701 12.92717 L 458.364701 10.918281 C 457.082988 11.546059 454.922386 12.424948 451.22896 12.424948 L 448.717849 12.424948 C 450.036182 12.142448 451.380673 10.484068 451.380673 6.942355 L 451.380673 4.310919 L 449.188682 4.310919 L 449.188682 8.946012 C 449.188682 11.169392 448.812015 12.424948 447.153636 12.424948 C 446.243358 12.424948 446.149191 12.424948 444.836089 12.424948 Z M 471.793915 32.315042 C 476.026184 32.315042 480.504332 29.966106 480.504332 25.644902 C 480.504332 21.255689 475.497804 21.103976 471.108591 20.690689 C 467.634887 20.3768 464.532618 19.84842 464.532618 16.934485 C 464.532618 13.900225 467.566878 12.618512 471.793915 12.618512 C 474.739239 12.618512 477.783962 14.051938 477.783962 16.531661 C 477.783962 17.091429 477.653175 17.504716 477.470073 17.876152 C 478.814564 18.122031 479.562666 17.028652 479.562666 15.835874 C 479.562666 12.545272 474.111462 12.111059 471.70498 12.111059 C 465.908498 12.111059 462.811461 14.208883 462.811461 17.530874 C 462.811461 21.538189 466.279933 22.662958 470.85748 22.976846 C 474.838637 23.259346 478.845953 23.107633 479.065675 26.738282 C 479.280166 30.217217 475.121138 31.807588 471.762526 31.807588 C 468.539933 31.807588 464.966831 30.36893 464.966831 27.271893 C 464.966831 26.51856 465.28072 25.676291 466.007896 25.200226 C 465.877109 25.017124 465.474285 24.886337 465.160396 24.886337 C 463.90484 24.886337 462.649285 25.95356 462.649285 27.36606 C 462.649285 30.876384 467.598267 32.315042 471.793915 32.315042 Z M 471.793915 32.315042 " stroke="#c4984f" stroke-width="1.370373" stroke-opacity="1" stroke-miterlimit="4"></path>
  <g fill="#c4984f" fill-opacity="1">
    <g transform="translate(14.328251, 90.702264)">
      <g>
        <path d="M 1.050781 -22.777344 C 1.378906 -22.941406 1.988281 -23.011719 2.363281 -23.011719 C 3.109375 -23.011719 3.390625 -22.566406 3.390625 -21.632812 L 3.390625 -0.351562 L 1.050781 -0.609375 L 1.050781 0 L 13.796875 0 C 18.125 0 20.324219 -3.179688 20.324219 -6.453125 C 20.324219 -9.636719 17.820312 -12.863281 13.679688 -13.027344 C 15.972656 -13.351562 18.941406 -14.453125 18.941406 -18.171875 C 18.941406 -22.007812 16.019531 -23.386719 13.328125 -23.386719 L 1.050781 -23.386719 Z M 12.042969 -23.011719 C 15.222656 -23.011719 17.234375 -21.304688 17.234375 -18.148438 C 17.234375 -14.921875 14.78125 -13.261719 11.644531 -13.261719 L 6.242188 -13.261719 L 6.242188 -12.886719 L 11.53125 -12.886719 C 17.820312 -12.886719 18.5 -8.253906 18.5 -6.429688 C 18.5 -3.53125 16.675781 -0.375 12.019531 -0.375 L 6.058594 -0.375 C 5.308594 -0.375 5.027344 -0.820312 5.027344 -1.753906 L 5.027344 -23.011719 Z M 12.042969 -23.011719 "></path>
      </g>
    </g>
  </g>
  <g fill="#c4984f" fill-opacity="1">
    <g transform="translate(35.814868, 90.702264)">
      <g>
        <path d="M 0.820312 -22.777344 C 1.144531 -22.941406 1.753906 -23.011719 2.128906 -23.011719 C 2.875 -23.011719 3.15625 -22.566406 3.15625 -21.632812 L 3.15625 -0.351562 L 0.820312 -0.609375 L 0.820312 0 L 7.132812 0 L 7.132812 -0.609375 C 6.804688 -0.445312 6.199219 -0.375 5.824219 -0.375 C 5.074219 -0.375 4.792969 -0.820312 4.792969 -1.753906 L 4.792969 -23.386719 L 0.820312 -23.386719 Z M 10.570312 -14.429688 C 12.136719 -14.429688 14.171875 -13.890625 14.171875 -10.757812 L 14.171875 -0.492188 C 14.171875 0.046875 14.21875 0.234375 14.523438 0.234375 C 15.015625 0.234375 15.949219 -0.980469 17.9375 -2.058594 L 17.9375 -2.621094 C 17.421875 -2.199219 16.722656 -1.566406 16.230469 -1.566406 C 15.902344 -1.566406 15.808594 -1.824219 15.808594 -2.199219 L 15.808594 -10.523438 C 15.808594 -13.46875 13.515625 -14.851562 10.851562 -14.851562 C 8.511719 -14.851562 6.828125 -13.796875 5.566406 -12.980469 L 5.566406 -12.464844 C 6.6875 -13.308594 8.511719 -14.429688 10.570312 -14.429688 Z M 10.570312 -14.429688 "></path>
      </g>
    </g>
  </g>
  <g fill="#c4984f" fill-opacity="1">
    <g transform="translate(54.33217, 90.702264)">
      <g>
        <path d="M 5.894531 0.234375 C 10.992188 0.234375 14.5 -4.652344 14.5 -8.746094 C 14.5 -12.816406 11.785156 -14.851562 7.953125 -14.851562 C 5.308594 -14.851562 3.015625 -13.960938 2.152344 -13.375 L 2.152344 -11.085938 C 3.15625 -12.277344 5.144531 -14.476562 8.089844 -14.476562 C 11.390625 -14.476562 12.792969 -11.390625 12.792969 -8.652344 C 12.792969 -4.699219 11.296875 -0.609375 7.34375 -0.609375 C 5.027344 -0.609375 3.015625 -1.777344 3.015625 -4.511719 C 3.015625 -7.601562 5.449219 -10.242188 8.769531 -10.242188 C 9.683594 -10.242188 10.78125 -10.054688 11.574219 -9.636719 L 11.808594 -10.007812 C 10.6875 -10.5 9.660156 -10.617188 8.628906 -10.617188 C 4.421875 -10.617188 1.285156 -8.089844 1.285156 -4.328125 C 1.285156 -1.214844 3.390625 0.234375 5.894531 0.234375 Z M 16.113281 0 L 16.113281 -0.375 C 14.898438 -0.375 13.65625 -1.097656 12.816406 -2.621094 L 12.816406 0 Z M 16.113281 0 "></path>
      </g>
    </g>
  </g>
  <g fill="#c4984f" fill-opacity="1">
    <g transform="translate(70.675099, 90.702264)">
      <g>
        <path d="M 0.820312 0 L 7.132812 0 L 7.132812 -0.609375 C 6.804688 -0.445312 6.199219 -0.375 5.824219 -0.375 C 5.074219 -0.375 4.792969 -0.820312 4.792969 -1.753906 L 4.792969 -14.617188 L 0.820312 -14.617188 L 0.820312 -14.007812 C 1.144531 -14.171875 1.753906 -14.242188 2.128906 -14.242188 C 2.875 -14.242188 3.15625 -13.796875 3.15625 -12.863281 L 3.15625 -0.351562 L 0.820312 -0.609375 Z M 5.613281 -11.949219 C 6.359375 -12.652344 7.320312 -13.75 9.914062 -13.75 C 12.066406 -13.75 13.214844 -12.230469 13.492188 -11.691406 L 13.492188 -14.617188 C 13.492188 -14.617188 12.253906 -14.851562 10.96875 -14.851562 C 7.8125 -14.851562 6.175781 -13.238281 5.285156 -12.253906 Z M 5.613281 -11.949219 "></path>
      </g>
    </g>
  </g>
  <g fill="#c4984f" fill-opacity="1">
    <g transform="translate(84.633218, 90.702264)">
      <g>
        <path d="M 5.894531 0.234375 C 10.992188 0.234375 14.5 -4.652344 14.5 -8.746094 C 14.5 -12.816406 11.785156 -14.851562 7.953125 -14.851562 C 5.308594 -14.851562 3.015625 -13.960938 2.152344 -13.375 L 2.152344 -11.085938 C 3.15625 -12.277344 5.144531 -14.476562 8.089844 -14.476562 C 11.390625 -14.476562 12.792969 -11.390625 12.792969 -8.652344 C 12.792969 -4.699219 11.296875 -0.609375 7.34375 -0.609375 C 5.027344 -0.609375 3.015625 -1.777344 3.015625 -4.511719 C 3.015625 -7.601562 5.449219 -10.242188 8.769531 -10.242188 C 9.683594 -10.242188 10.78125 -10.054688 11.574219 -9.636719 L 11.808594 -10.007812 C 10.6875 -10.5 9.660156 -10.617188 8.628906 -10.617188 C 4.421875 -10.617188 1.285156 -8.089844 1.285156 -4.328125 C 1.285156 -1.214844 3.390625 0.234375 5.894531 0.234375 Z M 16.113281 0 L 16.113281 -0.375 C 14.898438 -0.375 13.65625 -1.097656 12.816406 -2.621094 L 12.816406 0 Z M 16.113281 0 "></path>
      </g>
    </g>
  </g>
  <g fill="#c4984f" fill-opacity="1">
    <g transform="translate(100.976148, 90.702264)">
      <g>
        <path d="M 8.628906 0.210938 C 10.195312 0.210938 11.574219 -0.773438 12.253906 -1.660156 L 12.019531 -1.964844 C 10.875 -0.820312 10.125 -0.398438 8.628906 -0.398438 C 5.542969 -0.398438 4.863281 -3.859375 4.863281 -6.058594 L 4.863281 -13.308594 L 4.488281 -13.308594 C 4.488281 -10.265625 3.15625 -8.792969 3.15625 -5.847656 C 3.15625 -2.222656 5.566406 0.210938 8.628906 0.210938 Z M 0 -14.242188 L 10.101562 -14.242188 L 10.101562 -15.738281 C 9.144531 -15.269531 7.53125 -14.617188 4.769531 -14.617188 L 2.898438 -14.617188 C 3.882812 -14.828125 4.886719 -16.066406 4.886719 -18.707031 L 4.886719 -20.671875 L 3.25 -20.671875 L 3.25 -17.210938 C 3.25 -15.550781 2.96875 -14.617188 1.730469 -14.617188 C 1.050781 -14.617188 0.980469 -14.617188 0 -14.617188 Z M 0 -14.242188 "></path>
      </g>
    </g>
  </g>
  <g fill="#c4984f" fill-opacity="1">
    <g transform="translate(113.227494, 90.702264)">
      <g></g>
    </g>
  </g>
  <g fill="#c4984f" fill-opacity="1">
    <g transform="translate(124.917713, 90.702264)">
      <g>
        <path d="M 11.597656 0.234375 C 16.324219 0.234375 18.777344 -3.4375 18.777344 -3.4375 L 18.777344 -9.9375 C 18.777344 -10.875 19.058594 -11.320312 19.808594 -11.320312 C 20.183594 -11.320312 20.789062 -11.25 21.117188 -11.085938 L 21.117188 -11.691406 L 14.804688 -11.691406 L 14.804688 -11.085938 L 17.140625 -11.34375 L 17.140625 -2.851562 C 17.140625 -2.851562 14.523438 -0.140625 11.574219 -0.140625 C 6.058594 -0.140625 3.039062 -5.777344 3.039062 -11.691406 C 3.039062 -17.609375 6.265625 -23.011719 10.617188 -23.011719 C 13.75 -23.011719 15.246094 -22.078125 17.609375 -19.855469 L 17.609375 -22.238281 C 17.609375 -22.238281 15.714844 -23.621094 11.597656 -23.621094 C 4.792969 -23.621094 1.402344 -17.375 1.402344 -11.691406 C 1.402344 -6.011719 4.792969 0.234375 11.597656 0.234375 Z M 11.597656 0.234375 "></path>
      </g>
    </g>
  </g>
  <g fill="#c4984f" fill-opacity="1">
    <g transform="translate(146.497859, 90.702264)">
      <g>
        <path d="M 1.285156 -7.320312 C 1.285156 -3.15625 4 0.234375 8.652344 0.234375 C 13.308594 0.234375 16.019531 -3.15625 16.019531 -7.320312 C 16.019531 -11.460938 13.308594 -14.851562 8.652344 -14.851562 C 4 -14.851562 1.285156 -11.460938 1.285156 -7.320312 Z M 8.652344 -14.476562 C 12.371094 -14.476562 14.3125 -11.320312 14.3125 -7.320312 C 14.3125 -3.320312 12.371094 -0.140625 8.652344 -0.140625 C 4.933594 -0.140625 2.992188 -3.320312 2.992188 -7.320312 C 2.992188 -11.320312 4.933594 -14.476562 8.652344 -14.476562 Z M 8.652344 -14.476562 "></path>
      </g>
    </g>
  </g>
  <g fill="#c4984f" fill-opacity="1">
    <g transform="translate(163.799377, 90.702264)">
      <g>
        <path d="M 7.132812 0 L 7.132812 -0.609375 C 6.804688 -0.445312 6.199219 -0.375 5.824219 -0.375 C 5.074219 -0.375 4.792969 -0.820312 4.792969 -1.753906 L 4.792969 -23.386719 L 0.820312 -23.386719 L 0.820312 -22.777344 C 1.144531 -22.941406 1.753906 -23.011719 2.128906 -23.011719 C 2.875 -23.011719 3.15625 -22.566406 3.15625 -21.632812 L 3.15625 -0.351562 L 0.820312 -0.609375 L 0.820312 0 Z M 7.132812 0 "></path>
      </g>
    </g>
  </g>
  <g fill="#c4984f" fill-opacity="1">
    <g transform="translate(171.514921, 90.702264)">
      <g>
        <path d="M 8.652344 0.234375 C 11.4375 0.234375 13.167969 -1.238281 14.125 -2.433594 L 14.125 0 L 18.101562 0 L 18.101562 -0.609375 C 17.773438 -0.445312 17.164062 -0.375 16.792969 -0.375 C 16.042969 -0.375 15.761719 -0.820312 15.761719 -1.753906 L 15.761719 -23.386719 L 11.785156 -23.386719 L 11.785156 -22.777344 C 12.113281 -22.941406 12.722656 -23.011719 13.097656 -23.011719 C 13.84375 -23.011719 14.125 -22.566406 14.125 -21.632812 L 14.125 -4.839844 C 14.125 -4.839844 12.792969 -0.140625 8.652344 -0.140625 C 4.933594 -0.140625 2.992188 -3.320312 2.992188 -7.320312 C 2.992188 -11.320312 4.933594 -14.476562 8.652344 -14.476562 C 11.691406 -14.476562 12.933594 -12.792969 12.933594 -12.792969 L 13.261719 -13.214844 C 13.261719 -13.214844 11.949219 -14.851562 8.652344 -14.851562 C 4 -14.851562 1.285156 -11.460938 1.285156 -7.320312 C 1.285156 -3.15625 4 0.234375 8.652344 0.234375 Z M 8.652344 0.234375 "></path>
      </g>
    </g>
  </g>
  <g fill="#c4984f" fill-opacity="1">
    <g transform="translate(190.195889, 90.702264)">
      <g></g>
    </g>
  </g>
  <g fill="#c4984f" fill-opacity="1">
    <g transform="translate(201.886107, 90.702264)">
      <g>
        <path d="M 11.179688 0.234375 C 16.394531 0.234375 20.953125 -4.535156 20.953125 -11.691406 C 20.953125 -18.847656 16.394531 -23.621094 11.179688 -23.621094 C 5.964844 -23.621094 1.402344 -18.847656 1.402344 -11.691406 C 1.402344 -4.535156 5.964844 0.234375 11.179688 0.234375 Z M 3.109375 -11.667969 C 3.109375 -18.753906 6.78125 -23.246094 11.179688 -23.246094 C 15.574219 -23.246094 19.246094 -18.753906 19.246094 -11.667969 C 19.246094 -4.582031 15.574219 -0.140625 11.179688 -0.140625 C 6.78125 -0.140625 3.109375 -4.582031 3.109375 -11.667969 Z M 3.109375 -11.667969 "></path>
      </g>
    </g>
  </g>
  <g fill="#c4984f" fill-opacity="1">
    <g transform="translate(224.237818, 90.702264)">
      <g>
        <path d="M 0.820312 0 L 7.132812 0 L 7.132812 -0.609375 C 6.804688 -0.445312 6.199219 -0.375 5.824219 -0.375 C 5.074219 -0.375 4.792969 -0.820312 4.792969 -1.753906 L 4.792969 -14.617188 L 0.820312 -14.617188 L 0.820312 -14.007812 C 1.144531 -14.171875 1.753906 -14.242188 2.128906 -14.242188 C 2.875 -14.242188 3.15625 -13.796875 3.15625 -12.863281 L 3.15625 -0.351562 L 0.820312 -0.609375 Z M 5.613281 -11.949219 C 6.359375 -12.652344 7.320312 -13.75 9.914062 -13.75 C 12.066406 -13.75 13.214844 -12.230469 13.492188 -11.691406 L 13.492188 -14.617188 C 13.492188 -14.617188 12.253906 -14.851562 10.96875 -14.851562 C 7.8125 -14.851562 6.175781 -13.238281 5.285156 -12.253906 Z M 5.613281 -11.949219 "></path>
      </g>
    </g>
  </g>
  <g fill="#c4984f" fill-opacity="1">
    <g transform="translate(238.195938, 90.702264)">
      <g>
        <path d="M 5.566406 -12.464844 C 6.6875 -13.308594 8.511719 -14.429688 10.570312 -14.429688 C 12.136719 -14.429688 14.171875 -13.890625 14.171875 -10.757812 L 14.171875 -0.492188 C 14.171875 0.046875 14.21875 0.234375 14.523438 0.234375 C 15.015625 0.234375 15.855469 -0.5625 17.9375 -2.058594 L 17.9375 -2.621094 C 17.421875 -2.199219 16.722656 -1.566406 16.230469 -1.566406 C 15.902344 -1.566406 15.808594 -1.824219 15.808594 -2.199219 L 15.808594 -10.523438 C 15.808594 -13.46875 13.515625 -14.851562 10.851562 -14.851562 C 8.511719 -14.851562 6.828125 -13.796875 5.566406 -12.980469 Z M 7.132812 0 L 7.132812 -0.609375 C 6.804688 -0.445312 6.199219 -0.375 5.824219 -0.375 C 5.074219 -0.375 4.792969 -0.820312 4.792969 -1.753906 L 4.792969 -14.617188 L 0.820312 -14.617188 L 0.820312 -14.007812 C 1.144531 -14.171875 1.753906 -14.242188 2.128906 -14.242188 C 2.875 -14.242188 3.15625 -13.796875 3.15625 -12.863281 L 3.15625 -0.351562 L 0.820312 -0.609375 L 0.820312 0 Z M 7.132812 0 "></path>
      </g>
    </g>
  </g>
  <g fill="#c4984f" fill-opacity="1">
    <g transform="translate(256.713239, 90.702264)">
      <g>
        <path d="M 5.894531 0.234375 C 10.992188 0.234375 14.5 -4.652344 14.5 -8.746094 C 14.5 -12.816406 11.785156 -14.851562 7.953125 -14.851562 C 5.308594 -14.851562 3.015625 -13.960938 2.152344 -13.375 L 2.152344 -11.085938 C 3.15625 -12.277344 5.144531 -14.476562 8.089844 -14.476562 C 11.390625 -14.476562 12.792969 -11.390625 12.792969 -8.652344 C 12.792969 -4.699219 11.296875 -0.609375 7.34375 -0.609375 C 5.027344 -0.609375 3.015625 -1.777344 3.015625 -4.511719 C 3.015625 -7.601562 5.449219 -10.242188 8.769531 -10.242188 C 9.683594 -10.242188 10.78125 -10.054688 11.574219 -9.636719 L 11.808594 -10.007812 C 10.6875 -10.5 9.660156 -10.617188 8.628906 -10.617188 C 4.421875 -10.617188 1.285156 -8.089844 1.285156 -4.328125 C 1.285156 -1.214844 3.390625 0.234375 5.894531 0.234375 Z M 16.113281 0 L 16.113281 -0.375 C 14.898438 -0.375 13.65625 -1.097656 12.816406 -2.621094 L 12.816406 0 Z M 16.113281 0 "></path>
      </g>
    </g>
  </g>
  <g fill="#c4984f" fill-opacity="1">
    <g transform="translate(273.056168, 90.702264)">
      <g>
        <path d="M 9.214844 -14.851562 C 7.25 -14.851562 6.011719 -13.796875 5.566406 -12.980469 L 5.566406 -12.464844 C 6.175781 -13.398438 7.226562 -14.429688 8.910156 -14.429688 C 10.476562 -14.429688 11.832031 -13.609375 11.832031 -11.0625 L 11.832031 -0.351562 L 9.496094 -0.609375 L 9.496094 0 L 15.808594 0 L 15.808594 -0.609375 C 15.480469 -0.445312 14.875 -0.375 14.5 -0.375 C 13.75 -0.375 13.46875 -0.820312 13.46875 -1.753906 L 13.46875 -10.828125 C 13.46875 -13.285156 11.878906 -14.851562 9.214844 -14.851562 Z M 14.242188 -12.980469 L 14.242188 -12.464844 C 14.851562 -13.398438 15.902344 -14.429688 17.585938 -14.429688 C 19.152344 -14.429688 20.507812 -13.609375 20.507812 -11.0625 C 20.507812 -9.191406 20.53125 -6.664062 20.53125 -5.214844 L 20.53125 -0.492188 C 20.53125 0.046875 20.578125 0.234375 20.882812 0.234375 C 21.375 0.234375 22.214844 -0.5625 24.296875 -2.058594 L 24.296875 -2.621094 C 23.785156 -2.199219 23.082031 -1.566406 22.589844 -1.566406 C 22.261719 -1.566406 22.171875 -1.824219 22.171875 -2.199219 L 22.148438 -5.261719 L 22.148438 -10.828125 C 22.148438 -13.285156 20.554688 -14.851562 17.890625 -14.851562 C 15.925781 -14.851562 14.6875 -13.796875 14.242188 -12.980469 Z M 0.820312 -0.609375 L 0.820312 0 L 7.132812 0 L 7.132812 -0.609375 C 6.804688 -0.445312 6.199219 -0.375 5.824219 -0.375 C 5.074219 -0.375 4.792969 -0.820312 4.792969 -1.753906 L 4.792969 -14.617188 L 0.820312 -14.617188 L 0.820312 -14.007812 C 1.144531 -14.171875 1.753906 -14.242188 2.128906 -14.242188 C 2.875 -14.242188 3.15625 -13.796875 3.15625 -12.863281 L 3.15625 -0.351562 Z M 0.820312 -0.609375 "></path>
      </g>
    </g>
  </g>
  <g fill="#c4984f" fill-opacity="1">
    <g transform="translate(297.932953, 90.702264)">
      <g>
        <path d="M 8.652344 0.234375 C 11.761719 0.234375 13.820312 -1.402344 14.96875 -3.625 L 14.21875 -3.953125 C 13.421875 -1.613281 11.273438 -0.140625 8.652344 -0.140625 C 4.933594 -0.140625 2.992188 -3.320312 2.992188 -7.320312 C 2.992188 -11.320312 4.933594 -14.476562 8.652344 -14.476562 C 12.371094 -14.476562 13.46875 -11.574219 13.46875 -9.636719 C 13.46875 -6.734375 10.40625 -6.921875 10.40625 -6.921875 L 3.8125 -6.921875 L 3.8125 -6.523438 L 11.808594 -6.523438 C 11.808594 -6.523438 15.246094 -6.265625 15.246094 -9.378906 C 15.246094 -11.691406 13.308594 -14.851562 8.652344 -14.851562 C 4 -14.851562 1.285156 -11.460938 1.285156 -7.320312 C 1.285156 -3.15625 4 0.234375 8.652344 0.234375 Z M 8.652344 0.234375 "></path>
      </g>
    </g>
  </g>
  <g fill="#c4984f" fill-opacity="1">
    <g transform="translate(314.462917, 90.702264)">
      <g>
        <path d="M 5.566406 -12.464844 C 6.6875 -13.308594 8.511719 -14.429688 10.570312 -14.429688 C 12.136719 -14.429688 14.171875 -13.890625 14.171875 -10.757812 L 14.171875 -0.492188 C 14.171875 0.046875 14.21875 0.234375 14.523438 0.234375 C 15.015625 0.234375 15.855469 -0.5625 17.9375 -2.058594 L 17.9375 -2.621094 C 17.421875 -2.199219 16.722656 -1.566406 16.230469 -1.566406 C 15.902344 -1.566406 15.808594 -1.824219 15.808594 -2.199219 L 15.808594 -10.523438 C 15.808594 -13.46875 13.515625 -14.851562 10.851562 -14.851562 C 8.511719 -14.851562 6.828125 -13.796875 5.566406 -12.980469 Z M 7.132812 0 L 7.132812 -0.609375 C 6.804688 -0.445312 6.199219 -0.375 5.824219 -0.375 C 5.074219 -0.375 4.792969 -0.820312 4.792969 -1.753906 L 4.792969 -14.617188 L 0.820312 -14.617188 L 0.820312 -14.007812 C 1.144531 -14.171875 1.753906 -14.242188 2.128906 -14.242188 C 2.875 -14.242188 3.15625 -13.796875 3.15625 -12.863281 L 3.15625 -0.351562 L 0.820312 -0.609375 L 0.820312 0 Z M 7.132812 0 "></path>
      </g>
    </g>
  </g>
  <g fill="#c4984f" fill-opacity="1">
    <g transform="translate(332.980219, 90.702264)">
      <g>
        <path d="M 8.628906 0.210938 C 10.195312 0.210938 11.574219 -0.773438 12.253906 -1.660156 L 12.019531 -1.964844 C 10.875 -0.820312 10.125 -0.398438 8.628906 -0.398438 C 5.542969 -0.398438 4.863281 -3.859375 4.863281 -6.058594 L 4.863281 -13.308594 L 4.488281 -13.308594 C 4.488281 -10.265625 3.15625 -8.792969 3.15625 -5.847656 C 3.15625 -2.222656 5.566406 0.210938 8.628906 0.210938 Z M 0 -14.242188 L 10.101562 -14.242188 L 10.101562 -15.738281 C 9.144531 -15.269531 7.53125 -14.617188 4.769531 -14.617188 L 2.898438 -14.617188 C 3.882812 -14.828125 4.886719 -16.066406 4.886719 -18.707031 L 4.886719 -20.671875 L 3.25 -20.671875 L 3.25 -17.210938 C 3.25 -15.550781 2.96875 -14.617188 1.730469 -14.617188 C 1.050781 -14.617188 0.980469 -14.617188 0 -14.617188 Z M 0 -14.242188 "></path>
      </g>
    </g>
  </g>
  <g fill="#c4984f" fill-opacity="1">
    <g transform="translate(345.231553, 90.702264)">
      <g>
        <path d="M 7.882812 0.234375 C 11.039062 0.234375 14.382812 -1.519531 14.382812 -4.746094 C 14.382812 -8.019531 10.640625 -8.136719 7.367188 -8.441406 C 4.769531 -8.675781 2.457031 -9.074219 2.457031 -11.25 C 2.457031 -13.515625 4.722656 -14.476562 7.882812 -14.476562 C 10.078125 -14.476562 12.347656 -13.398438 12.347656 -11.550781 C 12.347656 -11.132812 12.253906 -10.828125 12.113281 -10.546875 C 13.121094 -10.359375 13.679688 -11.179688 13.679688 -12.066406 C 13.679688 -14.523438 9.613281 -14.851562 7.8125 -14.851562 C 3.484375 -14.851562 1.167969 -13.285156 1.167969 -10.804688 C 1.167969 -7.8125 3.765625 -6.96875 7.179688 -6.734375 C 10.148438 -6.523438 13.144531 -6.640625 13.308594 -3.929688 C 13.46875 -1.332031 10.359375 -0.140625 7.859375 -0.140625 C 5.449219 -0.140625 2.78125 -1.214844 2.78125 -3.53125 C 2.78125 -4.09375 3.015625 -4.722656 3.554688 -5.074219 C 3.460938 -5.214844 3.15625 -5.308594 2.921875 -5.308594 C 1.988281 -5.308594 1.050781 -4.511719 1.050781 -3.460938 C 1.050781 -0.84375 4.746094 0.234375 7.882812 0.234375 Z M 7.882812 0.234375 "></path>
      </g>
    </g>
  </g>
</svg>
